<svg width="657.9px" height="122px" xmlns="http://www.w3.org/2000/svg" viewBox="-78.96247558593751 13.9893798828125 657.924951171875 122.021240234375" style="background: rgb(253, 253, 253)" preserveAspectRatio="xMidYMid"><defs><filter id="editing-extrusion" x="-100%" y="-100%" width="300%" height="300%"><feFlood result="color1" flood-color="#bbcedd"></feFlood><feConvolveMatrix order="8,8" divisor="1" kernelMatrix="1 0 0 0 0 0 0 0 0 1 0 0 0 0 0 0 0 0 1 0 0 0 0 0 0 0 0 1 0 0 0 0 0 0 0 0 1 0 0 0 0 0 0 0 0 1 0 0 0 0 0 0 0 0 1 0 0 0 0 0 0 0 0 1" in="SourceAlpha" result="extrude"></feConvolveMatrix><feComposite in="color1" in2="extrude" result="comp-extrude" operator="in"></feComposite><feOffset dx="4" dy="4" in="comp-extrude" result="offset-extrude"></feOffset><feMerge><feMergeNode in="offset-extrude"></feMergeNode><feMergeNode in="SourceGraphic"></feMergeNode></feMerge></filter></defs><g filter="url(#editing-extrusion)"><g transform="matrix(1.4,0,0,2.1,-60,81.5)"><path d="M 3.4 8.8 L -10.6 8.8 L -2.4 -33.5 L 11.7 -33.5 L 3.4 8.8 Z M 59.1 10.1 L 59.1 10.1 L 59.1 10.1 Q 51.4 10.1 51.4 4 L 51.4 4 L 51.4 4 Q 51.4 1.4 52.5 -3.7 L 52.5 -3.7 L 52.5 -3.7 Q 53.6 -8.8 54 -10.8 L 54 -10.8 L 54 -10.8 Q 54.9 -15.5 54.9 -16.9 L 54.9 -16.9 L 54.9 -16.9 Q 54.9 -20.2 52.5 -20.2 L 52.5 -20.2 L 52.5 -20.2 Q 50.9 -20.2 49.4 -18 L 49.4 -18 L 49.4 -18 Q 47.8 -15.8 47.1 -11.4 L 47.1 -11.4 L 43.1 8.8 L 30.7 10.1 L 34.1 -7.3 L 34.1 -7.3 Q 34.7 -10.2 35.2 -13.5 L 35.2 -13.5 L 35.2 -13.5 Q 35.7 -16.8 35.7 -17.3 L 35.7 -17.3 L 35.7 -17.3 Q 35.7 -20.2 33.5 -20.2 L 33.5 -20.2 L 33.5 -20.2 Q 32.1 -20.2 30.5 -18 L 30.5 -18 L 30.5 -18 Q 28.9 -15.9 28 -11.4 L 28 -11.4 L 24.1 8.8 L 11.5 10.1 L 18.2 -23.9 L 28.6 -25.1 L 27.5 -18.7 L 27.5 -18.7 Q 29.2 -22.1 32.3 -23.6 L 32.3 -23.6 L 32.3 -23.6 Q 35.3 -25.1 40.1 -25.1 L 40.1 -25.1 L 40.1 -25.1 Q 42.9 -25.1 44.7 -23.8 L 44.7 -23.8 L 44.7 -23.8 Q 46.5 -22.4 47 -20.3 L 47 -20.3 L 47 -20.3 Q 48.1 -22.5 50.9 -23.8 L 50.9 -23.8 L 50.9 -23.8 Q 53.7 -25.1 57.1 -25.1 L 57.1 -25.1 L 57.1 -25.1 Q 60.6 -25.1 62.2 -24.4 L 62.2 -24.4 L 62.2 -24.4 Q 63.9 -23.7 65 -22.4 L 65 -22.4 L 65 -22.4 Q 66.7 -20.2 66.7 -16.1 L 66.7 -16.1 L 66.7 -16.1 Q 66.7 -12.1 65 -3.7 L 65 -3.7 L 65 -3.7 Q 64.1 0.4 64.1 1.9 L 64.1 1.9 L 64.1 1.9 Q 64.1 3.4 64.9 4.3 L 64.9 4.3 L 64.9 4.3 Q 65.8 5.2 67.1 5.3 L 67.1 5.3 L 67.1 5.3 Q 66.4 7.5 64.2 8.8 L 64.2 8.8 L 64.2 8.8 Q 62 10.1 59.1 10.1 Z M 74.8 6.9 L 74.8 6.9 L 74.8 6.9 Q 73.3 5.2 72.6 2.6 L 72.6 2.6 L 72.6 2.6 Q 71.9 0 71.9 -4.3 L 71.9 -4.3 L 71.9 -4.3 Q 71.9 -8.6 73.4 -12.5 L 73.4 -12.5 L 73.4 -12.5 Q 74.9 -16.4 77.6 -19.2 L 77.6 -19.2 L 77.6 -19.2 Q 83.1 -25.1 92.2 -25.1 L 92.2 -25.1 L 92.2 -25.1 Q 95.4 -25.1 97.8 -24 L 97.8 -24 L 108.7 -25.1 L 104 -0.2 L 104 -0.2 Q 103.8 0.6 103.8 2 L 103.8 2 L 103.8 2 Q 103.8 3.4 104.7 4.3 L 104.7 4.3 L 104.7 4.3 Q 105.5 5.2 106.8 5.3 L 106.8 5.3 L 106.8 5.3 Q 106.2 7.5 103.8 8.8 L 103.8 8.8 L 103.8 8.8 Q 101.5 10.1 98.9 10.1 L 98.9 10.1 L 98.9 10.1 Q 96.3 10.1 94.5 9.1 L 94.5 9.1 L 94.5 9.1 Q 92.7 8.1 92.2 6.4 L 92.2 6.4 L 92.2 6.4 Q 91.2 8 89 9 L 89 9 L 89 9 Q 86.9 10.1 83.9 10.1 L 83.9 10.1 L 83.9 10.1 Q 81 10.1 78.7 9.3 L 78.7 9.3 L 78.7 9.3 Q 76.3 8.5 74.8 6.9 Z M 88.3 -19.1 L 88.3 -19.1 L 88.3 -19.1 Q 87.6 -18 86.9 -16 L 86.9 -16 L 86.9 -16 Q 86.3 -14.1 85.2 -8.8 L 85.2 -8.8 L 85.2 -8.8 Q 84.2 -3.6 84.2 0.1 L 84.2 0.1 L 84.2 0.1 Q 84.2 3.8 84.7 4.9 L 84.7 4.9 L 84.7 4.9 Q 85.3 6 86.3 6 L 86.3 6 L 86.3 6 Q 88.4 6 89.9 4 L 89.9 4 L 89.9 4 Q 91.4 2.1 92 -1.4 L 92 -1.4 L 95.4 -20.1 L 95.4 -20.1 Q 94 -21.3 92.5 -21.3 L 92.5 -21.3 L 92.5 -21.3 Q 90.9 -21.3 90 -20.8 L 90 -20.8 L 90 -20.8 Q 89 -20.3 88.3 -19.1 Z M 116.5 -18 L 116.5 -18 L 116.5 -18 Q 118.7 -21 122 -23.1 L 122 -23.1 L 122 -23.1 Q 125.3 -25.1 129.3 -25.1 L 129.3 -25.1 L 129.3 -25.1 Q 133.3 -25.1 135.2 -23.9 L 135.2 -23.9 L 147.8 -25.1 L 143.4 -0.6 L 143.4 -0.6 Q 141.2 12 136.5 16.9 L 136.5 16.9 L 136.5 16.9 Q 131.9 21.6 123.1 21.6 L 123.1 21.6 L 123.1 21.6 Q 116.4 21.6 112.5 19.5 L 112.5 19.5 L 112.5 19.5 Q 108.7 17.4 108.7 13.8 L 108.7 13.8 L 108.7 13.8 Q 108.7 11.2 110.7 9.7 L 110.7 9.7 L 110.7 9.7 Q 112.6 8.2 115.7 8.2 L 115.7 8.2 L 115.7 8.2 Q 118.4 8.2 120.5 9.4 L 120.5 9.4 L 120.5 9.4 Q 121.7 10.1 122.2 11 L 122.2 11 L 122.2 11 Q 120.8 12.2 120.8 14.4 L 120.8 14.4 L 120.8 14.4 Q 120.8 17.1 123.3 17.1 L 123.3 17.1 L 123.3 17.1 Q 127.6 17.1 130.1 7 L 130.1 7 L 130.1 7 Q 130.8 4.2 131.3 1.5 L 131.3 1.5 L 131.3 1.5 Q 128.5 5 121.9 5 L 121.9 5 L 121.9 5 Q 117.4 5 114.8 2.8 L 114.8 2.8 L 114.8 2.8 Q 112.1 0.7 112.1 -4.5 L 112.1 -4.5 L 112.1 -4.5 Q 112.1 -7.7 113.2 -11.3 L 113.2 -11.3 L 113.2 -11.3 Q 114.3 -14.9 116.5 -18 Z M 124.8 -4.3 L 124.8 -4.3 L 124.8 -4.3 Q 124.8 0.1 127 0.1 L 127 0.1 L 127 0.1 Q 128.6 0.1 130.1 -1.6 L 130.1 -1.6 L 130.1 -1.6 Q 131.2 -2.9 131.7 -4.9 L 131.7 -4.9 L 134.9 -21.4 L 134.9 -21.4 Q 134.6 -21.4 134.3 -21.6 L 134.3 -21.6 L 134.3 -21.6 Q 133.6 -21.8 132.8 -21.8 L 132.8 -21.8 L 132.8 -21.8 Q 128.9 -21.8 126.6 -15.4 L 126.6 -15.4 L 126.6 -15.4 Q 124.8 -10.4 124.8 -4.3 Z M 176.2 -2 L 176.2 -2 L 176.2 -2 Q 177.8 -0.9 177.8 1.5 L 177.8 1.5 L 177.8 1.5 Q 177.8 3.9 176.6 5.4 L 176.6 5.4 L 176.6 5.4 Q 175.4 6.9 173.4 8 L 173.4 8 L 173.4 8 Q 169.3 10.1 164.9 10.1 L 164.9 10.1 L 164.9 10.1 Q 160.5 10.1 157.9 9.1 L 157.9 9.1 L 157.9 9.1 Q 155.3 8.1 153.5 6.4 L 153.5 6.4 L 153.5 6.4 Q 150.2 3 150.2 -3.2 L 150.2 -3.2 L 150.2 -3.2 Q 150.2 -12.9 155.4 -18.8 L 155.4 -18.8 L 155.4 -18.8 Q 161 -25.1 170.8 -25.1 L 170.8 -25.1 L 170.8 -25.1 Q 176.9 -25.1 179.9 -22.6 L 179.9 -22.6 L 179.9 -22.6 Q 182.2 -20.7 182.2 -17.5 L 182.2 -17.5 L 182.2 -17.5 Q 182.2 -6.3 162.7 -6.3 L 162.7 -6.3 L 162.7 -6.3 Q 162.4 -4.6 162.4 -3.2 L 162.4 -3.2 L 162.4 -3.2 Q 162.4 -0.2 163.8 0.9 L 163.8 0.9 L 163.8 0.9 Q 165.1 2 167.5 2 L 167.5 2 L 167.5 2 Q 169.9 2 172.5 0.9 L 172.5 0.9 L 172.5 0.9 Q 175.1 -0.2 176.2 -2 Z M 163.1 -9 L 163.1 -9 L 163.1 -9 Q 167.7 -9 170.3 -11.8 L 170.3 -11.8 L 170.3 -11.8 Q 172.9 -14.5 172.9 -18.8 L 172.9 -18.8 L 172.9 -18.8 Q 172.9 -20.3 172.4 -21.1 L 172.4 -21.1 L 172.4 -21.1 Q 171.8 -21.9 170.8 -21.9 L 170.8 -21.9 L 170.8 -21.9 Q 169.7 -21.9 168.7 -21.5 L 168.7 -21.5 L 168.7 -21.5 Q 167.8 -21 166.9 -19.6 L 166.9 -19.6 L 166.9 -19.6 Q 164.5 -16.4 163.1 -9 Z M 203.5 -13.7 L 203.5 -13.7 L 203.5 -13.7 Q 204.4 -16 204.4 -18.1 L 204.4 -18.1 L 204.4 -18.1 Q 204.4 -21.9 201.3 -21.9 L 201.3 -21.9 L 201.3 -21.9 Q 199.7 -21.9 198.4 -20.4 L 198.4 -20.4 L 198.4 -20.4 Q 197.1 -19 197.1 -17.2 L 197.1 -17.2 L 197.1 -17.2 Q 197.1 -15.9 198.1 -14.9 L 198.1 -14.9 L 198.1 -14.9 Q 199.6 -13.5 203.3 -11.2 L 203.3 -11.2 L 203.3 -11.2 Q 207.1 -8.9 208.6 -7 L 208.6 -7 L 208.6 -7 Q 210 -5.1 210 -2.5 L 210 -2.5 L 210 -2.5 Q 210 0.1 208.7 2.4 L 208.7 2.4 L 208.7 2.4 Q 207.5 4.8 205.3 6.5 L 205.3 6.5 L 205.3 6.5 Q 200.5 10.1 192.8 10.1 L 192.8 10.1 L 192.8 10.1 Q 188.6 10.1 185.4 7.9 L 185.4 7.9 L 185.4 7.9 Q 182.2 5.8 182.2 3.3 L 182.2 3.3 L 182.2 3.3 Q 182.2 0.8 184 -0.7 L 184 -0.7 L 184 -0.7 Q 185.9 -2.2 188.6 -2.2 L 188.6 -2.2 L 188.6 -2.2 Q 191.2 -2.2 192.9 -1.1 L 192.9 -1.1 L 192.9 -1.1 Q 192.1 1 192.1 2.4 L 192.1 2.4 L 192.1 2.4 Q 192.1 6.6 195.7 6.6 L 195.7 6.6 L 195.7 6.6 Q 197.2 6.6 198.2 5.6 L 198.2 5.6 L 198.2 5.6 Q 199.2 4.7 199.2 3 L 199.2 3 L 199.2 3 Q 199.2 -0.2 193.7 -3.7 L 193.7 -3.7 L 193.7 -3.7 Q 189.3 -6.6 188.2 -7.8 L 188.2 -7.8 L 188.2 -7.8 Q 186.5 -9.8 186.5 -12.4 L 186.5 -12.4 L 186.5 -12.4 Q 186.5 -15 187.7 -17.4 L 187.7 -17.4 L 187.7 -17.4 Q 188.9 -19.8 191.2 -21.6 L 191.2 -21.6 L 191.2 -21.6 Q 195.8 -25.1 204 -25.1 L 204 -25.1 L 204 -25.1 Q 208.1 -25.1 210.6 -23.5 L 210.6 -23.5 L 210.6 -23.5 Q 213.1 -21.8 213.1 -19 L 213.1 -19 L 213.1 -19 Q 213.1 -16.2 211.4 -14.6 L 211.4 -14.6 L 211.4 -14.6 Q 209.7 -13 206.6 -13 L 206.6 -13 L 206.6 -13 Q 204.5 -13 203.5 -13.7 Z M 254.5 -11.8 L 267.5 -13 L 267.5 -13 Q 262.9 -2.9 262.9 8.8 L 262.9 8.8 L 262.9 8.8 Q 261.1 10.1 258.6 10.1 L 258.6 10.1 L 258.6 10.1 Q 256.1 10.1 254.5 8.9 L 254.5 8.9 L 254.5 8.9 Q 252.9 7.7 252.6 6.5 L 252.6 6.5 L 252.6 6.5 Q 251 8.1 248.4 9.1 L 248.4 9.1 L 248.4 9.1 Q 245.8 10.1 243 10.1 L 243 10.1 L 243 10.1 Q 240.3 10.1 237.9 9.2 L 237.9 9.2 L 237.9 9.2 Q 235.5 8.3 233.6 6.3 L 233.6 6.3 L 233.6 6.3 Q 229.5 1.9 229.5 -6.3 L 229.5 -6.3 L 229.5 -6.3 Q 229.5 -19.1 236.4 -26.8 L 236.4 -26.8 L 236.4 -26.8 Q 243.4 -34.7 255.9 -34.7 L 255.9 -34.7 L 255.9 -34.7 Q 264.5 -34.7 267.6 -30.3 L 267.6 -30.3 L 267.6 -30.3 Q 268.6 -28.8 268.6 -27.2 L 268.6 -27.2 L 268.6 -27.2 Q 268.6 -25.5 267.8 -24 L 267.8 -24 L 267.8 -24 Q 267.1 -22.6 265.9 -21.4 L 265.9 -21.4 L 265.9 -21.4 Q 263.2 -18.9 259.8 -18.9 L 259.8 -18.9 L 259.8 -18.9 Q 258.4 -18.9 257.2 -19.3 L 257.2 -19.3 L 257.2 -19.3 Q 257.4 -21.2 257.4 -23.5 L 257.4 -23.5 L 257.4 -23.5 Q 257.4 -25.7 257.3 -26.7 L 257.3 -26.7 L 257.3 -26.7 Q 257.1 -27.8 256.7 -28.6 L 256.7 -28.6 L 256.7 -28.6 Q 255.9 -30.3 254.1 -30.3 L 254.1 -30.3 L 254.1 -30.3 Q 252.2 -30.3 250.2 -28.4 L 250.2 -28.4 L 250.2 -28.4 Q 248.2 -26.4 246.6 -23.2 L 246.6 -23.2 L 246.6 -23.2 Q 243.1 -16 243.1 -7.4 L 243.1 -7.4 L 243.1 -7.4 Q 243.1 -3.4 244.6 -0.6 L 244.6 -0.6 L 244.6 -0.6 Q 246.3 2.4 249.2 2.4 L 249.2 2.4 L 249.2 2.4 Q 250.2 2.4 251.2 1.9 L 251.2 1.9 L 251.2 1.9 Q 252.1 1.4 252.5 1 L 252.5 1 L 254.5 -11.8 Z M 273.4 6.9 L 273.4 6.9 L 273.4 6.9 Q 271.9 5.2 271.2 2.6 L 271.2 2.6 L 271.2 2.6 Q 270.5 0 270.5 -4.3 L 270.5 -4.3 L 270.5 -4.3 Q 270.5 -8.6 272 -12.5 L 272 -12.5 L 272 -12.5 Q 273.5 -16.4 276.2 -19.2 L 276.2 -19.2 L 276.2 -19.2 Q 281.7 -25.1 290.8 -25.1 L 290.8 -25.1 L 290.8 -25.1 Q 294 -25.1 296.4 -24 L 296.4 -24 L 307.3 -25.1 L 302.6 -0.2 L 302.6 -0.2 Q 302.4 0.6 302.4 2 L 302.4 2 L 302.4 2 Q 302.4 3.4 303.3 4.3 L 303.3 4.3 L 303.3 4.3 Q 304.1 5.2 305.4 5.3 L 305.4 5.3 L 305.4 5.3 Q 304.8 7.5 302.4 8.8 L 302.4 8.8 L 302.4 8.8 Q 300.1 10.1 297.5 10.1 L 297.5 10.1 L 297.5 10.1 Q 294.9 10.1 293.1 9.1 L 293.1 9.1 L 293.1 9.1 Q 291.3 8.1 290.8 6.4 L 290.8 6.4 L 290.8 6.4 Q 289.8 8 287.6 9 L 287.6 9 L 287.6 9 Q 285.4 10.1 282.5 10.1 L 282.5 10.1 L 282.5 10.1 Q 279.6 10.1 277.3 9.3 L 277.3 9.3 L 277.3 9.3 Q 274.9 8.5 273.4 6.9 Z M 286.9 -19.1 L 286.9 -19.1 L 286.9 -19.1 Q 286.2 -18 285.5 -16 L 285.5 -16 L 285.5 -16 Q 284.9 -14.1 283.8 -8.8 L 283.8 -8.8 L 283.8 -8.8 Q 282.8 -3.6 282.8 0.1 L 282.8 0.1 L 282.8 0.1 Q 282.8 3.8 283.3 4.9 L 283.3 4.9 L 283.3 4.9 Q 283.9 6 284.9 6 L 284.9 6 L 284.9 6 Q 287 6 288.5 4 L 288.5 4 L 288.5 4 Q 290 2.1 290.6 -1.4 L 290.6 -1.4 L 294 -20.1 L 294 -20.1 Q 292.6 -21.3 291 -21.3 L 291 -21.3 L 291 -21.3 Q 289.5 -21.3 288.6 -20.8 L 288.6 -20.8 L 288.6 -20.8 Q 287.6 -20.3 286.9 -19.1 Z M 326.1 5.3 L 326.1 5.3 L 326.1 5.3 Q 324.1 10.1 317.8 10.1 L 317.8 10.1 L 317.8 10.1 Q 314.6 10.1 312.5 7.8 L 312.5 7.8 L 312.5 7.8 Q 310.9 6 310.9 3.9 L 310.9 3.9 L 310.9 3.9 Q 310.9 -0.9 313.1 -11.4 L 313.1 -11.4 L 317.8 -36 L 330.8 -37.3 L 324.6 -4.9 L 324.6 -4.9 Q 323.5 -0.2 323.5 1.5 L 323.5 1.5 L 323.5 1.5 Q 323.5 5.1 326.1 5.3 Z M 346.8 5.3 L 346.8 5.3 L 346.8 5.3 Q 344.8 10.1 338.5 10.1 L 338.5 10.1 L 338.5 10.1 Q 335.3 10.1 333.3 7.8 L 333.3 7.8 L 333.3 7.8 Q 331.6 6 331.6 3.9 L 331.6 3.9 L 331.6 3.9 Q 331.6 -0.9 333.8 -11.4 L 333.8 -11.4 L 338.5 -36 L 351.5 -37.3 L 345.3 -4.9 L 345.3 -4.9 Q 344.2 -0.2 344.2 1.5 L 344.2 1.5 L 344.2 1.5 Q 344.2 5.1 346.8 5.3 Z M 378.2 -2 L 378.2 -2 L 378.2 -2 Q 379.8 -0.9 379.8 1.5 L 379.8 1.5 L 379.8 1.5 Q 379.8 3.9 378.6 5.4 L 378.6 5.4 L 378.6 5.4 Q 377.4 6.9 375.4 8 L 375.4 8 L 375.4 8 Q 371.3 10.1 366.9 10.1 L 366.9 10.1 L 366.9 10.1 Q 362.4 10.1 359.8 9.1 L 359.8 9.1 L 359.8 9.1 Q 357.3 8.1 355.5 6.4 L 355.5 6.4 L 355.5 6.4 Q 352.1 3 352.1 -3.2 L 352.1 -3.2 L 352.1 -3.2 Q 352.1 -12.9 357.4 -18.8 L 357.4 -18.8 L 357.4 -18.8 Q 363 -25.1 372.8 -25.1 L 372.8 -25.1 L 372.8 -25.1 Q 378.9 -25.1 381.9 -22.6 L 381.9 -22.6 L 381.9 -22.6 Q 384.1 -20.7 384.1 -17.5 L 384.1 -17.5 L 384.1 -17.5 Q 384.1 -6.3 364.7 -6.3 L 364.7 -6.3 L 364.7 -6.3 Q 364.4 -4.6 364.4 -3.2 L 364.4 -3.2 L 364.4 -3.2 Q 364.4 -0.2 365.7 0.9 L 365.7 0.9 L 365.7 0.9 Q 367 2 369.5 2 L 369.5 2 L 369.5 2 Q 371.9 2 374.5 0.9 L 374.5 0.9 L 374.5 0.9 Q 377.1 -0.2 378.2 -2 Z M 365.1 -9 L 365.1 -9 L 365.1 -9 Q 369.7 -9 372.3 -11.8 L 372.3 -11.8 L 372.3 -11.8 Q 374.9 -14.5 374.9 -18.8 L 374.9 -18.8 L 374.9 -18.8 Q 374.9 -20.3 374.4 -21.1 L 374.4 -21.1 L 374.4 -21.1 Q 373.8 -21.9 372.7 -21.9 L 372.7 -21.9 L 372.7 -21.9 Q 371.7 -21.9 370.7 -21.5 L 370.7 -21.5 L 370.7 -21.5 Q 369.8 -21 368.8 -19.6 L 368.8 -19.6 L 368.8 -19.6 Q 366.5 -16.4 365.1 -9 Z M 406.3 -9.2 L 406.3 -9.2 L 406.3 -9.2 Q 408.6 -13.3 408.6 -17.5 L 408.6 -17.5 L 408.6 -17.5 Q 408.6 -20.2 406.7 -20.2 L 406.7 -20.2 L 406.7 -20.2 Q 405.1 -20.2 403.5 -17.6 L 403.5 -17.6 L 403.5 -17.6 Q 401.9 -15 401.4 -11.6 L 401.4 -11.6 L 398 8.8 L 384.8 10.1 L 391.3 -23.9 L 401.9 -25.1 L 400.7 -18.7 L 400.7 -18.7 Q 403.8 -25.1 410.9 -25.1 L 410.9 -25.1 L 410.9 -25.1 Q 414.6 -25.1 416.6 -23.2 L 416.6 -23.2 L 416.6 -23.2 Q 418.6 -21.3 418.6 -17.4 L 418.6 -17.4 L 418.6 -17.4 Q 418.6 -13.4 416 -10.9 L 416 -10.9 L 416 -10.9 Q 413.4 -8.4 409 -8.4 L 409 -8.4 L 409 -8.4 Q 407.1 -8.4 406.3 -9.2 Z M 440 1.6 L 440 1.6 L 440 1.6 Q 436.7 5 430.6 5 L 430.6 5 L 430.6 5 Q 423 5 421.4 -0.6 L 421.4 -0.6 L 421.4 -0.6 Q 420.9 -2.2 420.9 -4.1 L 420.9 -4.1 L 420.9 -4.1 Q 420.9 -5.9 421.3 -7.9 L 421.3 -7.9 L 424.3 -23.9 L 437.3 -25.1 L 433.7 -6.5 L 433.7 -6.5 Q 433.6 -5.7 433.4 -4.8 L 433.4 -4.8 L 433.4 -4.8 Q 433.2 -3.9 433.2 -3 L 433.2 -3 L 433.2 -3 Q 433.2 -2 433.5 -1.4 L 433.5 -1.4 L 433.5 -1.4 Q 433.9 -0.8 434.3 -0.4 L 434.3 -0.4 L 434.3 -0.4 Q 435.1 0.1 436.5 0.1 L 436.5 0.1 L 436.5 0.1 Q 437.8 0.1 439 -1.6 L 439 -1.6 L 439 -1.6 Q 440.2 -3.2 440.8 -6.1 L 440.8 -6.1 L 444.3 -23.9 L 456.9 -25.1 L 452.1 0 L 452.1 0 Q 449.7 12.3 444.9 17.2 L 444.9 17.2 L 444.9 17.2 Q 442.4 19.7 439.1 20.7 L 439.1 20.7 L 439.1 20.7 Q 435.9 21.6 431.8 21.6 L 431.8 21.6 L 431.8 21.6 Q 425 21.6 421.2 19.5 L 421.2 19.5 L 421.2 19.5 Q 417.4 17.4 417.4 13.9 L 417.4 13.9 L 417.4 13.9 Q 417.4 11.3 419.3 9.8 L 419.3 9.8 L 419.3 9.8 Q 421.3 8.3 424.4 8.3 L 424.4 8.3 L 424.4 8.3 Q 427.1 8.3 429.1 9.4 L 429.1 9.4 L 429.1 9.4 Q 430.3 10.1 430.9 11 L 430.9 11 L 430.9 11 Q 429.4 12.3 429.4 14.4 L 429.4 14.4 L 429.4 14.4 Q 429.4 17.2 432 17.2 L 432 17.2 L 432 17.2 Q 436.2 17.2 438.7 7.5 L 438.7 7.5 L 438.7 7.5 Q 439.4 4.6 440 1.6 Z" fill="#85a2b6"></path></g></g><style>text {
  font-size: 64px;
  font-family: Arial Black;
  dominant-baseline: central;
  text-anchor: middle;
}</style></svg>